<svg width="13" height="11" viewBox="0 0 13 11" fill="none" xmlns="http://www.w3.org/2000/svg">
<path d="M11.4978 0.694375C11.3497 0.28875 10.9453 0 10.4722 0H2.52778C2.05472 0 1.65028 0.28875 1.50222 0.694375L0 4.8125V10.3125C0 10.6906 0.325 11 0.722222 11H1.44444C1.84528 11 2.16667 10.6906 2.16667 10.3125V9.625H10.8333V10.3125C10.8333 10.6906 11.1583 11 11.5556 11H12.2778C12.6786 11 13 10.6906 13 10.3125V4.8125L11.4978 0.694375ZM2.52778 7.5625C1.92833 7.5625 1.44444 7.10187 1.44444 6.53125C1.44444 5.96063 1.92833 5.5 2.52778 5.5C3.12722 5.5 3.61111 5.96063 3.61111 6.53125C3.61111 7.10187 3.12722 7.5625 2.52778 7.5625ZM10.4722 7.5625C9.87278 7.5625 9.38889 7.10187 9.38889 6.53125C9.38889 5.96063 9.87278 5.5 10.4722 5.5C11.0717 5.5 11.5556 5.96063 11.5556 6.53125C11.5556 7.10187 11.0717 7.5625 10.4722 7.5625ZM1.44444 4.125L2.52778 1.03125H10.4722L11.5556 4.125H1.44444Z" fill="black"/>
</svg>
