<svg width="15" height="11" viewBox="0 0 15 11" fill="none" xmlns="http://www.w3.org/2000/svg">
<g clip-path="url(#clip0_29_461)">
<path d="M15 3.25565C15 3.40905 14.9463 3.56347 14.8357 3.69254L13.6647 5.05933C13.5166 5.23223 13.2986 5.32214 13.0786 5.32214C12.9143 5.32214 12.7488 5.27197 12.6105 5.16869L11.25 4.15383V9.93548C11.25 10.5234 10.7463 11 10.125 11H4.87501C4.25391 11 3.75001 10.5232 3.75001 9.93548V4.15383L2.36954 5.16956C2.25118 5.27157 2.08571 5.30262 1.92141 5.30262C1.70138 5.30262 1.48337 5.21265 1.33524 5.03982L0.164351 3.69254C0.0537258 3.56391 0 3.40867 0 3.25565C0 3.05024 0.0963516 2.84669 0.281484 2.70831L3.44555 0.344194C3.74532 0.121754 4.11798 0 4.47891 0H5.28751C5.46798 1.00597 6.38673 1.77419 7.50001 1.77419C8.61329 1.77419 9.53274 1.00597 9.71227 0H10.4998C10.883 0 11.2549 0.121754 11.5542 0.345302L14.7183 2.70942C14.9039 2.84758 15 3.05161 15 3.25565Z" fill="#F16415"/>
</g>
<defs>
<clipPath id="clip0_29_461">
<rect width="15" height="11" fill="white"/>
</clipPath>
</defs>
</svg>
