<svg width="28px" height="28px" viewBox="0 0 29 28" fill="none" xmlns="http://www.w3.org/2000/svg">
<path fill="#EEDEDE" d="M5.16667 15.1667H12.1667C12.4761 15.1667 12.7728 15.0437 12.9916 14.825C13.2104 14.6062 13.3333 14.3094 13.3333 14V4.66667C13.3333 4.35725 13.2104 4.0605 12.9916 3.84171C12.7728 3.62292 12.4761 3.5 12.1667 3.5H5.16667C4.85725 3.5 4.5605 3.62292 4.34171 3.84171C4.12292 4.0605 4 4.35725 4 4.66667V14C4 14.3094 4.12292 14.6062 4.34171 14.825C4.5605 15.0437 4.85725 15.1667 5.16667 15.1667ZM4 23.3333C4 23.6428 4.12292 23.9395 4.34171 24.1583C4.5605 24.3771 4.85725 24.5 5.16667 24.5H12.1667C12.4761 24.5 12.7728 24.3771 12.9916 24.1583C13.2104 23.9395 13.3333 23.6428 13.3333 23.3333V18.6667C13.3333 18.3572 13.2104 18.0605 12.9916 17.8417C12.7728 17.6229 12.4761 17.5 12.1667 17.5H5.16667C4.85725 17.5 4.5605 17.6229 4.34171 17.8417C4.12292 18.0605 4 18.3572 4 18.6667V23.3333ZM15.6667 23.3333C15.6667 23.6428 15.7896 23.9395 16.0084 24.1583C16.2272 24.3771 16.5239 24.5 16.8333 24.5H23.8333C24.1428 24.5 24.4395 24.3771 24.6583 24.1583C24.8771 23.9395 25 23.6428 25 23.3333V15.1667C25 14.8572 24.8771 14.5605 24.6583 14.3417C24.4395 14.1229 24.1428 14 23.8333 14H16.8333C16.5239 14 16.2272 14.1229 16.0084 14.3417C15.7896 14.5605 15.6667 14.8572 15.6667 15.1667V23.3333ZM16.8333 11.6667H23.8333C24.1428 11.6667 24.4395 11.5437 24.6583 11.325C24.8771 11.1062 25 10.8094 25 10.5V4.66667C25 4.35725 24.8771 4.0605 24.6583 3.84171C24.4395 3.62292 24.1428 3.5 23.8333 3.5H16.8333C16.5239 3.5 16.2272 3.62292 16.0084 3.84171C15.7896 4.0605 15.6667 4.35725 15.6667 4.66667V10.5C15.6667 10.8094 15.7896 11.1062 16.0084 11.325C16.2272 11.5437 16.5239 11.6667 16.8333 11.6667Z"/>
</svg>
