<svg width="28" height="34" viewBox="0 0 28 34" fill="none" xmlns="http://www.w3.org/2000/svg">
<g filter="url(#filter0_d_29_268)">
<path d="M11.375 14.5C11.375 15.9989 12.5527 17.2188 14 17.2188C15.4472 17.2188 16.625 15.9989 16.625 14.5C16.625 13.0011 15.4472 11.7812 14 11.7812C12.5527 11.7812 11.375 13.0011 11.375 14.5Z" fill="white"/>
<path d="M11.375 22.6562C11.375 24.1552 12.5527 25.375 14 25.375C15.4472 25.375 16.625 24.1552 16.625 22.6562C16.625 21.1573 15.4472 19.9375 14 19.9375C12.5527 19.9375 11.375 21.1573 11.375 22.6562Z" fill="white"/>
<path d="M11.375 6.34375C11.375 7.84269 12.5527 9.0625 14 9.0625C15.4472 9.0625 16.625 7.84269 16.625 6.34375C16.625 4.84481 15.4472 3.625 14 3.625C12.5527 3.625 11.375 4.84481 11.375 6.34375Z" fill="white"/>
</g>
<defs>
<filter id="filter0_d_29_268" x="-4" y="0" width="36" height="37" filterUnits="userSpaceOnUse" color-interpolation-filters="sRGB">
<feFlood flood-opacity="0" result="BackgroundImageFix"/>
<feColorMatrix in="SourceAlpha" type="matrix" values="0 0 0 0 0 0 0 0 0 0 0 0 0 0 0 0 0 0 127 0" result="hardAlpha"/>
<feOffset dy="4"/>
<feGaussianBlur stdDeviation="2"/>
<feComposite in2="hardAlpha" operator="out"/>
<feColorMatrix type="matrix" values="0 0 0 0 0 0 0 0 0 0 0 0 0 0 0 0 0 0 0.25 0"/>
<feBlend mode="normal" in2="BackgroundImageFix" result="effect1_dropShadow_29_268"/>
<feBlend mode="normal" in="SourceGraphic" in2="effect1_dropShadow_29_268" result="shape"/>
</filter>
</defs>
</svg>
