<svg width="13" height="19" viewBox="0 0 13 19" fill="none" xmlns="http://www.w3.org/2000/svg">
<path fill-rule="evenodd" clip-rule="evenodd" d="M5.62809 10.7598H1.43466C1.29252 10.7598 1.15475 10.7131 1.04473 10.6278C0.781509 10.4235 0.742698 10.0556 0.958044 9.8059L9.23148 0.214257C9.38995 0.0305432 9.64988 -0.0439403 9.88908 0.0258242C10.2142 0.12063 10.3966 0.447428 10.2967 0.755742L8.18977 7.25431H12.3842C12.5264 7.25431 12.6642 7.30097 12.7742 7.38637C13.0374 7.59065 13.0761 7.95861 12.8608 8.20824L4.58636 17.7982C4.42787 17.9819 4.16794 18.0563 3.92876 17.9866C3.60369 17.8917 3.42124 17.5649 3.52122 17.2566L5.62809 10.7598Z" fill="#FFC107"/>
</svg>
