<svg width="51" height="46" viewBox="0 0 51 46" fill="none" xmlns="http://www.w3.org/2000/svg">
<path fill="#E1DADA" d="M20.8151 7.875C20.8151 7.875 32.1409 7.90576 32.5571 7.93652C32.5571 7.91602 32.5673 7.89551 32.5673 7.875C32.5673 3.52734 29.132 0 24.8073 0C20.4826 0 16.8984 3.52734 16.8984 7.875C16.8984 8.04932 16.9392 8.21338 16.9494 8.3877C18.2529 8.05957 19.5503 7.875 20.8151 7.875ZM45.621 18.375L43.2114 18.3753C42.4974 16.7347 41.4489 15.2802 40.1637 14.0703L41.7043 7.875L39.0931 7.87552C36.6958 7.87552 34.5742 8.9854 33.1364 10.6875C32.5897 10.6066 31.9777 10.5 31.2597 10.5H20.8151C14.5728 10.5 9.31787 15.0117 8.10206 21L4.56721 21.0003C3.36364 21.0003 2.40486 19.8921 2.64965 18.6411C2.83406 17.6941 3.70064 17.0625 4.64963 17.0625H4.73121C4.9964 17.0625 5.2208 16.8369 5.2208 16.5704V14.9298C5.22082 14.6672 4.99642 14.4375 4.73123 14.4375C2.40567 14.4375 0.33389 16.1093 0.0385039 18.4267C-0.318489 21.2264 1.85488 23.6258 4.56803 23.6258L7.83196 23.625C7.83196 27.9111 9.9013 31.6747 13.0534 34.0676L12.9816 39.375C12.9816 40.8187 14.1567 42 15.5928 42H18.2039C19.6401 42 20.8151 40.8187 20.8151 39.375L20.8153 36.75H31.2599L31.2596 39.375C31.2596 40.8187 32.4346 42 33.8708 42H36.4819C37.918 42 39.0931 40.8187 39.0931 39.375L39.093 34.0651C40.0518 33.3371 40.9143 32.4745 41.6487 31.5008L45.621 31.5C46.4125 31.5 47 30.9094 47 30.1875V19.6875C47 18.9656 46.4125 18.375 45.621 18.375ZM35.1764 23.625C34.4624 23.625 33.8708 23.0303 33.8708 22.3125C33.8708 21.5947 34.5318 21 35.1764 21C35.821 21 36.482 21.5947 36.482 22.3125C36.482 23.0303 35.9597 23.625 35.1764 23.625Z"/>
</svg>
