<svg width="23" height="24" viewBox="0 0 23 24" fill="none" xmlns="http://www.w3.org/2000/svg">
<path d="M21.7001 14.4L20.5001 13.7C19.2001 12.9 19.2001 11 20.5001 10.2L21.7001 9.5C22.7001 8.9 23.0001 7.7 22.4001 6.8L21.4001 5.1C20.8001 4.1 19.6001 3.8 18.7001 4.4L17.5001 5.1C16.2001 5.9 14.5001 4.9 14.5001 3.4V2C14.5001 0.9 13.6001 0 12.5001 0H10.5001C9.40009 0 8.50009 0.9 8.50009 2V3.3C8.50009 4.8 6.80009 5.8 5.50009 5L4.30009 4.4C3.30009 3.8 2.10009 4.2 1.60009 5.1L0.600089 6.8C0.100089 7.8 0.400089 9 1.30009 9.6L2.50009 10.3C3.80009 11 3.80009 13 2.50009 13.7L1.30009 14.4C0.300089 15 8.86619e-05 16.2 0.600089 17.1L1.60009 18.8C2.20009 19.8 3.40009 20.1 4.30009 19.5L5.50009 18.9C6.80009 18.1 8.50009 19.1 8.50009 20.6V22C8.50009 23.1 9.40009 24 10.5001 24H12.5001C13.6001 24 14.5001 23.1 14.5001 22V20.7C14.5001 19.2 16.2001 18.2 17.5001 19L18.7001 19.7C19.7001 20.3 20.9001 19.9 21.4001 19L22.4001 17.3C22.9001 16.2 22.6001 15 21.7001 14.4ZM11.5001 16C9.30009 16 7.50009 14.2 7.50009 12C7.50009 9.8 9.30009 8 11.5001 8C13.7001 8 15.5001 9.8 15.5001 12C15.5001 14.2 13.7001 16 11.5001 16Z" fill="#EEDEDE"/>
</svg>
