<svg width="28px" height="28px" viewBox="0 0 28 28" fill="none" xmlns="http://www.w3.org/2000/svg">
<g clip-path="url(#clip0_29_295)">
<path d="M14 0C11.2311 0 8.52431 0.821086 6.22202 2.35943C3.91973 3.89776 2.12532 6.08427 1.06569 8.64243C0.006066 11.2006 -0.271181 14.0155 0.269012 16.7313C0.809206 19.447 2.14258 21.9416 4.10051 23.8995C6.05845 25.8574 8.55301 27.1908 11.2687 27.731C13.9845 28.2712 16.7994 27.9939 19.3576 26.9343C21.9157 25.8747 24.1022 24.0803 25.6406 21.778C27.1789 19.4757 28 16.7689 28 14C27.9963 10.2881 26.5202 6.72926 23.8955 4.10455C21.2707 1.47983 17.7119 0.00366009 14 0ZM14 24.5C11.9233 24.5 9.89324 23.8842 8.16652 22.7304C6.4398 21.5767 5.09399 19.9368 4.29927 18.0182C3.50455 16.0996 3.29662 13.9884 3.70176 11.9516C4.10691 9.91475 5.10693 8.04383 6.57539 6.57538C8.04384 5.10693 9.91476 4.1069 11.9516 3.70175C13.9884 3.29661 16.0996 3.50454 18.0182 4.29926C19.9368 5.09398 21.5767 6.4398 22.7304 8.16651C23.8842 9.89323 24.5 11.9233 24.5 14C24.497 16.7838 23.3898 19.4528 21.4213 21.4213C19.4528 23.3897 16.7838 24.497 14 24.5Z" fill="#ECEBEB"/>
<path d="M14 7C12.6155 7 11.2622 7.41054 10.111 8.17971C8.95987 8.94888 8.06266 10.0421 7.53285 11.3212C7.00303 12.6003 6.86441 14.0078 7.13451 15.3656C7.4046 16.7235 8.07129 17.9708 9.05026 18.9497C10.0292 19.9287 11.2765 20.5954 12.6344 20.8655C13.9922 21.1356 15.3997 20.997 16.6788 20.4672C17.9579 19.9373 19.0511 19.0401 19.8203 17.889C20.5895 16.7378 21 15.3845 21 14C20.9976 12.1442 20.2593 10.3651 18.9471 9.05291C17.6349 7.74068 15.8558 7.00241 14 7ZM14 17.5C13.3078 17.5 12.6311 17.2947 12.0555 16.9101C11.4799 16.5256 11.0313 15.9789 10.7664 15.3394C10.5015 14.6999 10.4322 13.9961 10.5673 13.3172C10.7023 12.6383 11.0356 12.0146 11.5251 11.5251C12.0146 11.0356 12.6383 10.7023 13.3172 10.5673C13.9961 10.4322 14.6999 10.5015 15.3394 10.7664C15.9789 11.0313 16.5256 11.4799 16.9101 12.0555C17.2947 12.6311 17.5 13.3078 17.5 14C17.4994 14.9281 17.1304 15.8179 16.4742 16.4742C15.8179 17.1304 14.9281 17.4994 14 17.5Z" fill="#ECEBEB"/>
</g>
<defs>
<clipPath id="clip0_29_295">
<rect width="28" height="28" fill="white"/>
</clipPath>
</defs>
</svg>
