<svg width="28px" height="28px" viewBox="0 0 29 28" fill="none" xmlns="http://www.w3.org/2000/svg">
<path fill="#EEDEDE" d="M26.1667 5.83332H25.0001V2.33332C25.0001 2.0239 24.8772 1.72716 24.6584 1.50837C24.4396 1.28957 24.1428 1.16666 23.8334 1.16666H5.16675C4.23849 1.16666 3.34825 1.53541 2.69187 2.19178C2.0355 2.84816 1.66675 3.7384 1.66675 4.66666V23.3333C1.66675 24.2616 2.0355 25.1518 2.69187 25.8082C3.34825 26.4646 4.23849 26.8333 5.16675 26.8333H26.1667C26.4762 26.8333 26.7729 26.7104 26.9917 26.4916C27.2105 26.2728 27.3334 25.9761 27.3334 25.6667V6.99999C27.3334 6.69057 27.2105 6.39382 26.9917 6.17503C26.7729 5.95624 26.4762 5.83332 26.1667 5.83332ZM4.36175 3.83832C4.81675 3.35999 3.65008 3.49999 22.6667 3.49999V5.83332H5.16675C4.93701 5.83008 4.71333 5.75908 4.52379 5.62921C4.33425 5.49935 4.18727 5.3164 4.10129 5.10333C4.01531 4.89026 3.99417 4.65654 4.0405 4.4315C4.08684 4.20645 4.19859 4.0001 4.36175 3.83832ZM5.16675 24.5C4.85733 24.5 4.56058 24.3771 4.34179 24.1583C4.123 23.9395 4.00008 23.6427 4.00008 23.3333V7.96832C4.84008 8.25999 4.28008 8.16666 25.0001 8.16666V12.8333H21.5001C20.5718 12.8333 19.6816 13.2021 19.0252 13.8584C18.3688 14.5148 18.0001 15.4051 18.0001 16.3333C18.0001 17.2616 18.3688 18.1518 19.0252 18.8082C19.6816 19.4646 20.5718 19.8333 21.5001 19.8333H25.0001V24.5H5.16675ZM25.0001 17.5H21.5001C21.1907 17.5 20.8939 17.3771 20.6751 17.1583C20.4563 16.9395 20.3334 16.6427 20.3334 16.3333C20.3334 16.0239 20.4563 15.7272 20.6751 15.5084C20.8939 15.2896 21.1907 15.1667 21.5001 15.1667H25.0001V17.5Z"/>
</svg>
