<svg width="18" height="20" viewBox="0 0 18 20" fill="none" xmlns="http://www.w3.org/2000/svg">
<path d="M9.4875 1.86666L9 1.39999L8.5125 1.86666C8.25 2.08333 3 7.16666 3 11.6667C3 13.4348 3.63214 15.1305 4.75736 16.3807C5.88258 17.6309 7.4087 18.3333 9 18.3333C10.5913 18.3333 12.1174 17.6309 13.2426 16.3807C14.3679 15.1305 15 13.4348 15 11.6667C15 7.16666 9.75 2.08333 9.4875 1.86666ZM10.6725 15.3917L10.005 13.9C10.3786 13.6928 10.6929 13.3741 10.9128 12.9797C11.1327 12.5852 11.2494 12.1306 11.25 11.6667H12.75C12.7493 12.4407 12.5545 13.1992 12.1876 13.8571C11.8206 14.5151 11.296 15.0464 10.6725 15.3917Z" fill="#1D56CA"/>
</svg>
